<?xml version="1.0" encoding="UTF-8" standalone="no"?>
<!-- Created with Inkscape (http://www.inkscape.org/) -->

<svg
   xmlns:dc="http://purl.org/dc/elements/1.1/"
   xmlns:cc="http://creativecommons.org/ns#"
   xmlns:rdf="http://www.w3.org/1999/02/22-rdf-syntax-ns#"
   xmlns:svg="http://www.w3.org/2000/svg"
   xmlns="http://www.w3.org/2000/svg"
   xmlns:sodipodi="http://sodipodi.sourceforge.net/DTD/sodipodi-0.dtd"
   xmlns:inkscape="http://www.inkscape.org/namespaces/inkscape"
   id="svg2"
   version="1.1"
   inkscape:version="0.48.4 r9939"
   width="350.31476"
   height="131.93852"
   xml:space="preserve"
   sodipodi:docname="spr-definition.svg"><metadata
     id="metadata8"><rdf:RDF><cc:Work
         rdf:about=""><dc:format>image/svg+xml</dc:format><dc:type
           rdf:resource="http://purl.org/dc/dcmitype/StillImage" /><dc:title /></cc:Work></rdf:RDF></metadata><defs
     id="defs6" /><sodipodi:namedview
     pagecolor="#ffffff"
     bordercolor="#666666"
     borderopacity="1"
     objecttolerance="10"
     gridtolerance="10"
     guidetolerance="10"
     inkscape:pageopacity="0"
     inkscape:pageshadow="2"
     inkscape:window-width="1920"
     inkscape:window-height="1199"
     id="namedview4"
     showgrid="false"
     inkscape:zoom="3.5868565"
     inkscape:cx="197.7879"
     inkscape:cy="91.908853"
     inkscape:window-x="1600"
     inkscape:window-y="0"
     inkscape:window-maximized="1"
     inkscape:current-layer="g10"
     fit-margin-top="0"
     fit-margin-left="0"
     fit-margin-right="0"
     fit-margin-bottom="0" /><g
     id="g10"
     inkscape:groupmode="layer"
     inkscape:label="spr"
     transform="matrix(1.25,0,0,-1.25,-120.25,891.77625)"><g
       id="g446"
       style="fill:#000000;stroke:#005500"><path
         d="m 356,658.052 6,10.392"
         style="fill:#000000;stroke:#005500;stroke-width:0.40000001000000002;stroke-linecap:butt;stroke-linejoin:round;stroke-miterlimit:10;stroke-opacity:1;stroke-dasharray:1, 1;stroke-dashoffset:0"
         id="path448"
         inkscape:connector-curvature="0" /></g><g
       id="g12"
       style="fill:#000000"><g
         id="g14"
         style="fill:#000000"><path
           d="m 345.8,711.621 c 0,0.995 -0.806,1.8 -1.8,1.8 -0.994,0 -1.8,-0.805 -1.8,-1.8 0,-0.994 0.806,-1.799 1.8,-1.799 0.994,0 1.8,0.805 1.8,1.799"
           style="fill:#000000;fill-opacity:1;fill-rule:evenodd;stroke:none"
           id="path16"
           inkscape:connector-curvature="0" /></g></g><g
       id="g18"
       transform="translate(203.883,639.524)"
       style="fill:#000000"><g
         id="g20"
         transform="translate(0,-786.864)"
         style="fill:#000000"><text
           transform="matrix(1,0,0,-1,0,786.864)"
           id="text22"
           style="fill:#000000"><tspan
             style="font-size:7.97009993px;font-variant:normal;font-weight:normal;writing-mode:lr-tb;fill:#000000;fill-opacity:1;fill-rule:nonzero;stroke:none;font-family:Sans;-inkscape-font-specification:Sans"
             x="0"
             y="0"
             id="tspan24">1</tspan></text>
</g></g><g
       id="g42"
       transform="translate(239.883,639.524)"
       style="fill:#000000"><g
         id="g44"
         transform="translate(0,-786.864)"
         style="fill:#000000"><text
           transform="matrix(1,0,0,-1,0,786.864)"
           id="text46"
           style="fill:#000000"><tspan
             style="font-size:7.97009993px;font-variant:normal;font-weight:normal;writing-mode:lr-tb;fill:#000000;fill-opacity:1;fill-rule:nonzero;stroke:none;font-family:Sans;-inkscape-font-specification:Sans"
             x="0"
             y="0"
             id="tspan48">4</tspan></text>
</g></g><g
       id="g50"
       transform="translate(251.883,639.524)"
       style="fill:#000000"><g
         id="g52"
         transform="translate(0,-786.864)"
         style="fill:#000000"><text
           transform="matrix(1,0,0,-1,0,786.864)"
           id="text54"
           style="fill:#000000"><tspan
             style="font-size:7.97009993px;font-variant:normal;font-weight:normal;writing-mode:lr-tb;fill:#000000;fill-opacity:1;fill-rule:nonzero;stroke:none;font-family:Sans;-inkscape-font-specification:Sans"
             x="0"
             y="0"
             id="tspan56">5</tspan></text>
</g></g><g
       id="g58"
       transform="translate(263.883,639.524)"
       style="fill:#000000"><g
         id="g60"
         transform="translate(0,-786.864)"
         style="fill:#000000"><text
           transform="matrix(1,0,0,-1,0,786.864)"
           id="text62"
           style="fill:#000000"><tspan
             style="font-size:7.97009993px;font-variant:normal;font-weight:normal;writing-mode:lr-tb;fill:#000000;fill-opacity:1;fill-rule:nonzero;stroke:none;font-family:Sans;-inkscape-font-specification:Sans"
             x="0"
             y="0"
             id="tspan64">6</tspan></text>
</g></g><g
       id="g76"
       style="fill:#000000"><g
         id="g78"
         style="fill:#000000"><path
           d="m 207.8,647.66 c 0,0.994 -0.806,1.8 -1.8,1.8 -0.994,0 -1.8,-0.806 -1.8,-1.8 0,-0.994 0.806,-1.8 1.8,-1.8 0.994,0 1.8,0.806 1.8,1.8"
           style="fill:#000000;fill-opacity:1;fill-rule:evenodd;stroke:none"
           id="path80"
           inkscape:connector-curvature="0" /></g></g><g
       id="g94"
       style="fill:#000000"><g
         id="g96"
         style="fill:#000000"><path
           d="m 243.8,647.66 c 0,0.994 -0.806,1.8 -1.8,1.8 -0.994,0 -1.8,-0.806 -1.8,-1.8 0,-0.994 0.806,-1.8 1.8,-1.8 0.994,0 1.8,0.806 1.8,1.8"
           style="fill:#000000;fill-opacity:1;fill-rule:evenodd;stroke:none"
           id="path98"
           inkscape:connector-curvature="0" /></g></g><g
       id="g100"
       style="fill:#000000"><g
         id="g102"
         style="fill:#000000"><path
           d="m 255.8,647.66 c 0,0.994 -0.806,1.8 -1.8,1.8 -0.994,0 -1.8,-0.806 -1.8,-1.8 0,-0.994 0.806,-1.8 1.8,-1.8 0.994,0 1.8,0.806 1.8,1.8"
           style="fill:#000000;fill-opacity:1;fill-rule:evenodd;stroke:none"
           id="path104"
           inkscape:connector-curvature="0" /></g></g><g
       id="g106"
       style="fill:#000000"><g
         id="g108"
         style="fill:#000000"><path
           d="m 267.8,647.66 c 0,0.994 -0.806,1.8 -1.8,1.8 -0.994,0 -1.8,-0.806 -1.8,-1.8 0,-0.994 0.806,-1.8 1.8,-1.8 0.994,0 1.8,0.806 1.8,1.8"
           style="fill:#000000;fill-opacity:1;fill-rule:evenodd;stroke:none"
           id="path110"
           inkscape:connector-curvature="0" /></g></g><g
       id="g112"
       style="fill:#000000"><g
         id="g114"
         style="fill:#000000"><path
           d="m 237.8,699.621 c 0,0.995 -0.806,1.8 -1.8,1.8 -0.994,0 -1.8,-0.805 -1.8,-1.8 0,-0.994 0.806,-1.799 1.8,-1.799 0.994,0 1.8,0.805 1.8,1.799"
           style="fill:#000000;fill-opacity:1;fill-rule:evenodd;stroke:none"
           id="path116"
           inkscape:connector-curvature="0" /></g></g><g
       id="g118"
       style="fill:#000000"><g
         id="g120"
         style="fill:#000000"><path
           d="m 255.8,668.445 c 0,0.994 -0.806,1.8 -1.8,1.8 -0.994,0 -1.8,-0.806 -1.8,-1.8 0,-0.994 0.806,-1.8 1.8,-1.8 0.994,0 1.8,0.806 1.8,1.8"
           style="fill:#000000;fill-opacity:1;fill-rule:evenodd;stroke:none"
           id="path122"
           inkscape:connector-curvature="0" /></g></g><g
       id="g124"
       style="fill:#000000"><g
         id="g126"
         style="fill:#000000"><path
           d="m 249.8,658.052 c 0,0.994 -0.806,1.8 -1.8,1.8 -0.994,0 -1.8,-0.806 -1.8,-1.8 0,-0.994 0.806,-1.8 1.8,-1.8 0.994,0 1.8,0.806 1.8,1.8"
           style="fill:#000000;fill-opacity:1;fill-rule:evenodd;stroke:none"
           id="path128"
           inkscape:connector-curvature="0" /></g></g><g
       id="g136"
       style="fill:#000000"><path
         d="m 206,647.66 30,51.961"
         style="fill:#000000;stroke:#000000;stroke-width:0.40000001;stroke-linecap:butt;stroke-linejoin:round;stroke-miterlimit:10;stroke-opacity:1;stroke-dasharray:none"
         id="path138"
         inkscape:connector-curvature="0" /></g><g
       id="g148"
       style="fill:#000000"><path
         d="m 242,647.66 6,10.392"
         style="fill:#000000;stroke:#000000;stroke-width:0.40000001;stroke-linecap:butt;stroke-linejoin:round;stroke-miterlimit:10;stroke-opacity:1;stroke-dasharray:none"
         id="path150"
         inkscape:connector-curvature="0" /></g><g
       id="g152"
       style="fill:#000000"><path
         d="m 248,658.052 6,10.393"
         style="fill:#000000;stroke:#000000;stroke-width:0.40000001;stroke-linecap:butt;stroke-linejoin:round;stroke-miterlimit:10;stroke-opacity:1;stroke-dasharray:none"
         id="path154"
         inkscape:connector-curvature="0" /></g><g
       id="g156"
       style="fill:#000000"><path
         d="m 254,647.66 -6,10.392"
         style="fill:#000000;stroke:#000000;stroke-width:0.40000001;stroke-linecap:butt;stroke-linejoin:round;stroke-miterlimit:10;stroke-opacity:1;stroke-dasharray:none"
         id="path158"
         inkscape:connector-curvature="0" /></g><g
       id="g160"
       style="fill:#000000"><path
         d="m 266,647.66 -12,20.785"
         style="fill:#000000;stroke:#000000;stroke-width:0.40000001;stroke-linecap:butt;stroke-linejoin:round;stroke-miterlimit:10;stroke-opacity:1;stroke-dasharray:none"
         id="path162"
         inkscape:connector-curvature="0" /></g><g
       id="g164"
       style="fill:#000000"><path
         d="M 254,668.445 242,689.23"
         style="fill:#000000;stroke:#000000;stroke-width:0.40000001;stroke-linecap:butt;stroke-linejoin:round;stroke-miterlimit:10;stroke-opacity:1;stroke-dasharray:none"
         id="path166"
         inkscape:connector-curvature="0" /></g><g
       id="g168"
       style="fill:#000000"><path
         d="m 242,689.23 -6,10.391"
         style="fill:#000000;stroke:#000000;stroke-width:0.40000001;stroke-linecap:butt;stroke-linejoin:round;stroke-miterlimit:10;stroke-opacity:1;stroke-dasharray:none"
         id="path170"
         inkscape:connector-curvature="0" /></g><g
       id="g172"
       style="fill:#000000"><path
         d="m 236,711.622 0,-12"
         style="fill:#000000;stroke:#000000;stroke-width:0.40000001;stroke-linecap:butt;stroke-linejoin:round;stroke-miterlimit:10;stroke-opacity:1;stroke-dasharray:none"
         id="path174"
         inkscape:connector-curvature="0" /></g><g
       id="g176"
       style="fill:#000000"><g
         id="g178"
         style="fill:#000000"><path
           d="m 237.8,711.621 c 0,0.995 -0.806,1.8 -1.8,1.8 -0.994,0 -1.8,-0.805 -1.8,-1.8 0,-0.994 0.806,-1.799 1.8,-1.799 0.994,0 1.8,0.805 1.8,1.799"
           style="fill:#000000;fill-opacity:1;fill-rule:evenodd;stroke:none"
           id="path180"
           inkscape:connector-curvature="0" /></g></g><g
       id="g182"
       transform="translate(95.883,639.524)"
       style="fill:#000000"><g
         id="g184"
         transform="translate(0,-786.864)"
         style="fill:#000000"><text
           transform="matrix(1,0,0,-1,0,786.864)"
           id="text186"
           style="fill:#000000"><tspan
             style="font-size:7.97009993px;font-variant:normal;font-weight:normal;writing-mode:lr-tb;fill:#000000;fill-opacity:1;fill-rule:nonzero;stroke:none;font-family:Sans;-inkscape-font-specification:Sans"
             x="0"
             y="0"
             id="tspan188">1</tspan></text>
</g></g><g
       id="g190"
       transform="translate(107.883,639.524)"
       style="fill:#000000"><g
         id="g192"
         transform="translate(0,-786.864)"
         style="fill:#000000"><text
           transform="matrix(1,0,0,-1,0,786.864)"
           id="text194"
           style="fill:#000000"><tspan
             style="font-size:7.97009993px;font-variant:normal;font-weight:normal;writing-mode:lr-tb;fill:#000000;fill-opacity:1;fill-rule:nonzero;stroke:none;font-family:Sans;-inkscape-font-specification:Sans"
             x="0"
             y="0"
             id="tspan196">2</tspan></text>
</g></g><g
       id="g198"
       transform="translate(119.883,639.524)"
       style="fill:#000000"><g
         id="g200"
         transform="translate(0,-786.864)"
         style="fill:#000000"><text
           transform="matrix(1,0,0,-1,0,786.864)"
           id="text202"
           style="fill:#000000"><tspan
             style="font-size:7.97009993px;font-variant:normal;font-weight:normal;writing-mode:lr-tb;fill:#000000;fill-opacity:1;fill-rule:nonzero;stroke:none;font-family:Sans;-inkscape-font-specification:Sans"
             x="0"
             y="0"
             id="tspan204">3</tspan></text>
</g></g><g
       id="g206"
       transform="translate(131.883,639.524)"
       style="fill:#000000"><g
         id="g208"
         transform="translate(0,-786.864)"
         style="fill:#000000"><text
           transform="matrix(1,0,0,-1,0,786.864)"
           id="text210"
           style="fill:#000000"><tspan
             style="font-size:7.97009993px;font-variant:normal;font-weight:normal;writing-mode:lr-tb;fill:#000000;fill-opacity:1;fill-rule:nonzero;stroke:none;font-family:Sans;-inkscape-font-specification:Sans"
             x="0"
             y="0"
             id="tspan212">4</tspan></text>
</g></g><g
       id="g214"
       transform="translate(143.883,639.524)"
       style="fill:#000000"><g
         id="g216"
         transform="translate(0,-786.864)"
         style="fill:#000000"><text
           transform="matrix(1,0,0,-1,0,786.864)"
           id="text218"
           style="fill:#000000"><tspan
             style="font-size:7.97009993px;font-variant:normal;font-weight:normal;writing-mode:lr-tb;fill:#000000;fill-opacity:1;fill-rule:nonzero;stroke:none;font-family:Sans;-inkscape-font-specification:Sans"
             x="0"
             y="0"
             id="tspan220">5</tspan></text>
</g></g><g
       id="g222"
       transform="translate(155.883,639.524)"
       style="fill:#000000"><g
         id="g224"
         transform="translate(0,-786.864)"
         style="fill:#000000"><text
           transform="matrix(1,0,0,-1,0,786.864)"
           id="text226"
           style="fill:#000000"><tspan
             style="font-size:7.97009993px;font-variant:normal;font-weight:normal;writing-mode:lr-tb;fill:#000000;fill-opacity:1;fill-rule:nonzero;stroke:none;font-family:Sans;-inkscape-font-specification:Sans"
             x="0"
             y="0"
             id="tspan228">6</tspan></text>
</g></g><g
       id="g240"
       style="fill:#000000"><g
         id="g242"
         style="fill:#000000"><path
           d="m 99.8,647.66 c 0,0.994 -0.8059,1.8 -1.8,1.8 -0.9941,0 -1.8,-0.806 -1.8,-1.8 0,-0.994 0.8059,-1.8 1.8,-1.8 0.9941,0 1.8,0.806 1.8,1.8"
           style="fill:#000000;fill-opacity:1;fill-rule:evenodd;stroke:none"
           id="path244"
           inkscape:connector-curvature="0" /></g></g><g
       id="g246"
       style="fill:#000000"><g
         id="g248"
         style="fill:#000000"><path
           d="m 111.8,647.66 c 0,0.994 -0.806,1.8 -1.8,1.8 -0.994,0 -1.8,-0.806 -1.8,-1.8 0,-0.994 0.806,-1.8 1.8,-1.8 0.994,0 1.8,0.806 1.8,1.8"
           style="fill:#000000;fill-opacity:1;fill-rule:evenodd;stroke:none"
           id="path250"
           inkscape:connector-curvature="0" /></g></g><g
       id="g252"
       style="fill:#000000"><g
         id="g254"
         style="fill:#000000"><path
           d="m 123.8,647.66 c 0,0.994 -0.806,1.8 -1.8,1.8 -0.994,0 -1.8,-0.806 -1.8,-1.8 0,-0.994 0.806,-1.8 1.8,-1.8 0.994,0 1.8,0.806 1.8,1.8"
           style="fill:#000000;fill-opacity:1;fill-rule:evenodd;stroke:none"
           id="path256"
           inkscape:connector-curvature="0" /></g></g><g
       id="g258"
       style="fill:#000000"><g
         id="g260"
         style="fill:#000000"><path
           d="m 135.8,647.66 c 0,0.994 -0.806,1.8 -1.8,1.8 -0.994,0 -1.8,-0.806 -1.8,-1.8 0,-0.994 0.806,-1.8 1.8,-1.8 0.994,0 1.8,0.806 1.8,1.8"
           style="fill:#000000;fill-opacity:1;fill-rule:evenodd;stroke:none"
           id="path262"
           inkscape:connector-curvature="0" /></g></g><g
       id="g264"
       style="fill:#000000"><g
         id="g266"
         style="fill:#000000"><path
           d="m 147.8,647.66 c 0,0.994 -0.806,1.8 -1.8,1.8 -0.994,0 -1.8,-0.806 -1.8,-1.8 0,-0.994 0.806,-1.8 1.8,-1.8 0.994,0 1.8,0.806 1.8,1.8"
           style="fill:#000000;fill-opacity:1;fill-rule:evenodd;stroke:none"
           id="path268"
           inkscape:connector-curvature="0" /></g></g><g
       id="g270"
       style="fill:#000000"><g
         id="g272"
         style="fill:#000000"><path
           d="m 159.8,647.66 c 0,0.994 -0.806,1.8 -1.8,1.8 -0.994,0 -1.8,-0.806 -1.8,-1.8 0,-0.994 0.806,-1.8 1.8,-1.8 0.994,0 1.8,0.806 1.8,1.8"
           style="fill:#000000;fill-opacity:1;fill-rule:evenodd;stroke:none"
           id="path274"
           inkscape:connector-curvature="0" /></g></g><g
       id="g276"
       style="fill:#000000"><g
         id="g278"
         style="fill:#000000"><path
           d="m 129.8,699.621 c 0,0.995 -0.806,1.8 -1.8,1.8 -0.994,0 -1.8,-0.805 -1.8,-1.8 0,-0.994 0.806,-1.799 1.8,-1.799 0.994,0 1.8,0.805 1.8,1.799"
           style="fill:#000000;fill-opacity:1;fill-rule:evenodd;stroke:none"
           id="path280"
           inkscape:connector-curvature="0" /></g></g><g
       id="g282"
       style="fill:#000000"><g
         id="g284"
         style="fill:#000000"><path
           d="m 147.8,668.445 c 0,0.994 -0.806,1.8 -1.8,1.8 -0.994,0 -1.8,-0.806 -1.8,-1.8 0,-0.994 0.806,-1.8 1.8,-1.8 0.994,0 1.8,0.806 1.8,1.8"
           style="fill:#000000;fill-opacity:1;fill-rule:evenodd;stroke:none"
           id="path286"
           inkscape:connector-curvature="0" /></g></g><g
       id="g288"
       style="fill:#000000"><g
         id="g290"
         style="fill:#000000"><path
           d="m 141.8,658.052 c 0,0.994 -0.806,1.8 -1.8,1.8 -0.994,0 -1.8,-0.806 -1.8,-1.8 0,-0.994 0.806,-1.8 1.8,-1.8 0.994,0 1.8,0.806 1.8,1.8"
           style="fill:#000000;fill-opacity:1;fill-rule:evenodd;stroke:none"
           id="path292"
           inkscape:connector-curvature="0" /></g></g><g
       id="g294"
       style="fill:#000000"><g
         id="g296"
         style="fill:#000000"><path
           d="m 117.8,658.052 c 0,0.994 -0.806,1.8 -1.8,1.8 -0.994,0 -1.8,-0.806 -1.8,-1.8 0,-0.994 0.806,-1.8 1.8,-1.8 0.994,0 1.8,0.806 1.8,1.8"
           style="fill:#000000;fill-opacity:1;fill-rule:evenodd;stroke:none"
           id="path298"
           inkscape:connector-curvature="0" /></g></g><g
       id="g300"
       style="fill:#000000"><path
         d="m 98,647.66 30,51.961"
         style="fill:#000000;stroke:#000000;stroke-width:0.40000001;stroke-linecap:butt;stroke-linejoin:round;stroke-miterlimit:10;stroke-opacity:1;stroke-dasharray:none"
         id="path302"
         inkscape:connector-curvature="0" /></g><g
       id="g304"
       style="fill:#000000;stroke:#000000"><path
         d="m 110,647.66 6,10.392"
         style="fill:#000000;stroke:#000000;stroke-width:0.40000001;stroke-linecap:butt;stroke-linejoin:round;stroke-miterlimit:10;stroke-opacity:1;stroke-dasharray:none"
         id="path306"
         inkscape:connector-curvature="0" /></g><g
       id="g308"
       style="fill:#000000;stroke:#000000"><path
         d="m 122,647.66 -6,10.392"
         style="fill:#000000;stroke:#000000;stroke-width:0.40000001;stroke-linecap:butt;stroke-linejoin:round;stroke-miterlimit:10;stroke-opacity:1;stroke-dasharray:none"
         id="path310"
         inkscape:connector-curvature="0" /></g><g
       id="g312"
       style="fill:#000000;stroke:#000000"><path
         d="m 116,658.052 18,31.178"
         style="fill:#000000;stroke:#000000;stroke-width:0.40000001;stroke-linecap:butt;stroke-linejoin:round;stroke-miterlimit:10;stroke-opacity:1;stroke-dasharray:1, 1;stroke-dashoffset:0"
         id="path314"
         inkscape:connector-curvature="0" /></g><g
       id="g316"
       style="fill:#000000"><path
         d="m 134,647.66 6,10.392"
         style="fill:#000000;stroke:#000000;stroke-width:0.40000001;stroke-linecap:butt;stroke-linejoin:round;stroke-miterlimit:10;stroke-opacity:1;stroke-dasharray:none"
         id="path318"
         inkscape:connector-curvature="0" /></g><g
       id="g320"
       style="fill:#000000"><path
         d="m 140,658.052 6,10.393"
         style="fill:#000000;stroke:#000000;stroke-width:0.40000001;stroke-linecap:butt;stroke-linejoin:round;stroke-miterlimit:10;stroke-opacity:1;stroke-dasharray:none"
         id="path322"
         inkscape:connector-curvature="0" /></g><g
       id="g324"
       style="fill:#000000"><path
         d="m 146,647.66 -6,10.392"
         style="fill:#000000;stroke:#000000;stroke-width:0.40000001;stroke-linecap:butt;stroke-linejoin:round;stroke-miterlimit:10;stroke-opacity:1;stroke-dasharray:none"
         id="path326"
         inkscape:connector-curvature="0" /></g><g
       id="g328"
       style="fill:#000000"><path
         d="m 158,647.66 -12,20.785"
         style="fill:#000000;stroke:#000000;stroke-width:0.40000001;stroke-linecap:butt;stroke-linejoin:round;stroke-miterlimit:10;stroke-opacity:1;stroke-dasharray:none"
         id="path330"
         inkscape:connector-curvature="0" /></g><g
       id="g332"
       style="fill:#000000"><path
         d="M 146,668.445 134,689.23"
         style="fill:#000000;stroke:#000000;stroke-width:0.40000001;stroke-linecap:butt;stroke-linejoin:round;stroke-miterlimit:10;stroke-opacity:1;stroke-dasharray:none"
         id="path334"
         inkscape:connector-curvature="0" /></g><g
       id="g336"
       style="fill:#000000"><path
         d="m 134,689.23 -6,10.391"
         style="fill:#000000;stroke:#000000;stroke-width:0.40000001;stroke-linecap:butt;stroke-linejoin:round;stroke-miterlimit:10;stroke-opacity:1;stroke-dasharray:none"
         id="path338"
         inkscape:connector-curvature="0" /></g><g
       id="g340"
       style="fill:#000000"><path
         d="m 128,711.622 0,-12"
         style="fill:#000000;stroke:#000000;stroke-width:0.40000001;stroke-linecap:butt;stroke-linejoin:round;stroke-miterlimit:10;stroke-opacity:1;stroke-dasharray:none"
         id="path342"
         inkscape:connector-curvature="0" /></g><g
       id="g344"
       style="fill:#000000"><g
         id="g346"
         style="fill:#000000"><path
           d="m 129.8,711.621 c 0,0.995 -0.806,1.8 -1.8,1.8 -0.994,0 -1.8,-0.805 -1.8,-1.8 0,-0.994 0.806,-1.799 1.8,-1.799 0.994,0 1.8,0.805 1.8,1.799"
           style="fill:#000000;fill-opacity:1;fill-rule:evenodd;stroke:none"
           id="path348"
           inkscape:connector-curvature="0" /></g></g><g
       id="g366"
       style="fill:#000000"><g
         id="g368"
         style="fill:#000000"><path
           d="m 315.8,647.659 c 0,0.995 -0.806,1.8 -1.8,1.8 -0.994,0 -1.8,-0.805 -1.8,-1.8 0,-0.994 0.806,-1.799 1.8,-1.799 0.994,0 1.8,0.805 1.8,1.799"
           style="fill:#000000;fill-opacity:1;fill-rule:evenodd;stroke:none"
           id="path370"
           inkscape:connector-curvature="0" /></g></g><g
       id="g372"
       style="fill:#000000"><g
         id="g374"
         style="fill:#000000"><path
           d="m 327.8,647.659 c 0,0.995 -0.806,1.8 -1.8,1.8 -0.994,0 -1.8,-0.805 -1.8,-1.8 0,-0.994 0.806,-1.799 1.8,-1.799 0.994,0 1.8,0.805 1.8,1.799"
           style="fill:#000000;fill-opacity:1;fill-rule:evenodd;stroke:none"
           id="path376"
           inkscape:connector-curvature="0" /></g></g><g
       id="g378"
       style="fill:#000000"><g
         id="g380"
         style="fill:#000000"><path
           d="m 339.8,647.659 c 0,0.995 -0.806,1.8 -1.8,1.8 -0.994,0 -1.8,-0.805 -1.8,-1.8 0,-0.994 0.806,-1.799 1.8,-1.799 0.994,0 1.8,0.805 1.8,1.799"
           style="fill:#000000;fill-opacity:1;fill-rule:evenodd;stroke:none"
           id="path382"
           inkscape:connector-curvature="0" /></g></g><g
       id="g384"
       style="fill:#000000"><g
         id="g386"
         style="fill:#000000"><path
           d="m 351.8,647.659 c 0,0.995 -0.806,1.8 -1.8,1.8 -0.994,0 -1.8,-0.805 -1.8,-1.8 0,-0.994 0.806,-1.799 1.8,-1.799 0.994,0 1.8,0.805 1.8,1.799"
           style="fill:#000000;fill-opacity:1;fill-rule:evenodd;stroke:none"
           id="path388"
           inkscape:connector-curvature="0" /></g></g><g
       id="g390"
       style="fill:#000000"><g
         id="g392"
         style="fill:#000000"><path
           d="m 363.8,647.659 c 0,0.995 -0.806,1.8 -1.8,1.8 -0.994,0 -1.8,-0.805 -1.8,-1.8 0,-0.994 0.806,-1.799 1.8,-1.799 0.994,0 1.8,0.805 1.8,1.799"
           style="fill:#000000;fill-opacity:1;fill-rule:evenodd;stroke:none"
           id="path394"
           inkscape:connector-curvature="0" /></g></g><g
       id="g396"
       style="fill:#000000"><g
         id="g398"
         style="fill:#000000"><path
           d="m 375.8,647.659 c 0,0.995 -0.806,1.8 -1.8,1.8 -0.994,0 -1.8,-0.805 -1.8,-1.8 0,-0.994 0.806,-1.799 1.8,-1.799 0.994,0 1.8,0.805 1.8,1.799"
           style="fill:#000000;fill-opacity:1;fill-rule:evenodd;stroke:none"
           id="path400"
           inkscape:connector-curvature="0" /></g></g><g
       id="g402"
       style="fill:#000000"><g
         id="g404"
         style="fill:#000000"><path
           d="m 345.8,699.621 c 0,0.994 -0.806,1.8 -1.8,1.8 -0.994,0 -1.8,-0.806 -1.8,-1.8 0,-0.994 0.806,-1.8 1.8,-1.8 0.994,0 1.8,0.806 1.8,1.8"
           style="fill:#000000;fill-opacity:1;fill-rule:evenodd;stroke:none"
           id="path406"
           inkscape:connector-curvature="0" /></g></g><g
       id="g408"
       style="fill:#000000"><g
         id="g410"
         style="fill:#000000"><path
           d="m 351.8,689.229 c 0,0.994 -0.806,1.8 -1.8,1.8 -0.994,0 -1.8,-0.806 -1.8,-1.8 0,-0.994 0.806,-1.8 1.8,-1.8 0.994,0 1.8,0.806 1.8,1.8"
           style="fill:#000000;fill-opacity:1;fill-rule:evenodd;stroke:none"
           id="path412"
           inkscape:connector-curvature="0" /></g></g><g
       id="g414"
       style="fill:#000000"><g
         id="g416"
         style="fill:#000000"><path
           d="m 357.8,658.052 c 0,0.994 -0.806,1.799 -1.8,1.799 -0.994,0 -1.8,-0.805 -1.8,-1.799 0,-0.995 0.806,-1.8 1.8,-1.8 0.994,0 1.8,0.805 1.8,1.8"
           style="fill:#000000;fill-opacity:1;fill-rule:evenodd;stroke:none"
           id="path418"
           inkscape:connector-curvature="0" /></g></g><g
       id="g420"
       style="fill:#000000"><g
         id="g422"
         style="fill:#000000"><path
           d="m 333.8,658.052 c 0,0.994 -0.806,1.799 -1.8,1.799 -0.994,0 -1.8,-0.805 -1.8,-1.799 0,-0.995 0.806,-1.8 1.8,-1.8 0.994,0 1.8,0.805 1.8,1.8"
           style="fill:#000000;fill-opacity:1;fill-rule:evenodd;stroke:none"
           id="path424"
           inkscape:connector-curvature="0" /></g></g><g
       id="g426"
       style="fill:#000000"><path
         d="m 314,647.659 30,51.962"
         style="fill:#000000;stroke:#000000;stroke-width:0.40000001;stroke-linecap:butt;stroke-linejoin:round;stroke-miterlimit:10;stroke-opacity:1;stroke-dasharray:none"
         id="path428"
         inkscape:connector-curvature="0" /></g><g
       id="g430"
       style="fill:#000000"><path
         d="m 326,647.659 6,10.393"
         style="fill:#000000;stroke:#000000;stroke-width:0.40000001;stroke-linecap:butt;stroke-linejoin:round;stroke-miterlimit:10;stroke-opacity:1;stroke-dasharray:none"
         id="path432"
         inkscape:connector-curvature="0" /></g><g
       id="g434"
       style="fill:#000000"><path
         d="m 338,647.659 -6,10.393"
         style="fill:#000000;stroke:#000000;stroke-width:0.40000001;stroke-linecap:butt;stroke-linejoin:round;stroke-miterlimit:10;stroke-opacity:1;stroke-dasharray:none"
         id="path436"
         inkscape:connector-curvature="0" /></g><g
       id="g438"
       style="fill:#000000"><path
         d="m 332,658.052 18,31.177"
         style="fill:#000000;stroke:#000000;stroke-width:0.40000001;stroke-linecap:butt;stroke-linejoin:round;stroke-miterlimit:10;stroke-opacity:1;stroke-dasharray:none"
         id="path440"
         inkscape:connector-curvature="0" /></g><g
       id="g442"
       style="fill:#000000;stroke:#000000"><path
         d="m 350,647.659 6,10.393"
         style="fill:#000000;stroke:#000000;stroke-width:0.40000001;stroke-linecap:butt;stroke-linejoin:round;stroke-miterlimit:10;stroke-opacity:1;stroke-dasharray:none"
         id="path444"
         inkscape:connector-curvature="0" /></g><g
       id="g450"
       style="fill:#000000;stroke:#000000"><path
         d="m 362,647.659 -6,10.393"
         style="fill:#000000;stroke:#000000;stroke-width:0.40000001;stroke-linecap:butt;stroke-linejoin:round;stroke-miterlimit:10;stroke-opacity:1;stroke-dasharray:none"
         id="path452"
         inkscape:connector-curvature="0" /></g><g
       id="g454"
       style="fill:#000000"><path
         d="m 374,647.659 -12,20.785"
         style="fill:#000000;stroke:#000000;stroke-width:0.40000001;stroke-linecap:butt;stroke-linejoin:round;stroke-miterlimit:10;stroke-opacity:1;stroke-dasharray:none"
         id="path456"
         inkscape:connector-curvature="0" /></g><g
       id="g458"
       style="fill:#000000"><path
         d="m 362,668.444 -12,20.785"
         style="fill:#000000;stroke:#000000;stroke-width:0.40000001;stroke-linecap:butt;stroke-linejoin:round;stroke-miterlimit:10;stroke-opacity:1;stroke-dasharray:none"
         id="path460"
         inkscape:connector-curvature="0" /></g><g
       id="g462"
       style="fill:#000000"><path
         d="m 350,689.229 -6,10.392"
         style="fill:#000000;stroke:#000000;stroke-width:0.40000001;stroke-linecap:butt;stroke-linejoin:round;stroke-miterlimit:10;stroke-opacity:1;stroke-dasharray:none"
         id="path464"
         inkscape:connector-curvature="0" /></g><g
       id="g466"
       style="fill:#000000"><path
         d="m 344,711.621 0,-12"
         style="fill:#000000;stroke:#000000;stroke-width:0.40000001;stroke-linecap:butt;stroke-linejoin:round;stroke-miterlimit:10;stroke-opacity:1;stroke-dasharray:none"
         id="path468"
         inkscape:connector-curvature="0" /></g><g
       id="g470"
       transform="translate(311.883,639.524)"
       style="fill:#000000"><g
         id="g472"
         transform="translate(0,-786.864)"
         style="fill:#000000"><text
           transform="matrix(1,0,0,-1,0,786.864)"
           id="text474"
           style="fill:#000000"><tspan
             style="font-size:7.97009993px;font-variant:normal;font-weight:normal;writing-mode:lr-tb;fill:#000000;fill-opacity:1;fill-rule:nonzero;stroke:none;font-family:Sans;-inkscape-font-specification:Sans"
             x="0"
             y="0"
             id="tspan476">1</tspan></text>
</g></g><g
       id="g478"
       transform="translate(347.883,639.524)"
       style="fill:#000000"><g
         id="g480"
         transform="translate(0,-786.864)"
         style="fill:#000000"><text
           transform="matrix(1,0,0,-1,0,786.864)"
           id="text482"
           style="fill:#000000"><tspan
             style="font-size:7.97009993px;font-variant:normal;font-weight:normal;writing-mode:lr-tb;fill:#000000;fill-opacity:1;fill-rule:nonzero;stroke:none;font-family:Sans;-inkscape-font-specification:Sans"
             x="0"
             y="0"
             id="tspan484">2</tspan></text>
</g></g><g
       id="g486"
       transform="translate(359.883,639.524)"
       style="fill:#000000"><g
         id="g488"
         transform="translate(0,-786.864)"
         style="fill:#000000"><text
           transform="matrix(1,0,0,-1,0,786.864)"
           id="text490"
           style="fill:#000000"><tspan
             style="font-size:7.97009993px;font-variant:normal;font-weight:normal;writing-mode:lr-tb;fill:#000000;fill-opacity:1;fill-rule:nonzero;stroke:none;font-family:Sans;-inkscape-font-specification:Sans"
             x="0"
             y="0"
             id="tspan492">3</tspan></text>
</g></g><g
       id="g494"
       transform="translate(323.883,639.524)"
       style="fill:#000000"><g
         id="g496"
         transform="translate(0,-786.864)"
         style="fill:#000000"><text
           transform="matrix(1,0,0,-1,0,786.864)"
           id="text498"
           style="fill:#000000"><tspan
             style="font-size:7.97009993px;font-variant:normal;font-weight:normal;writing-mode:lr-tb;fill:#000000;fill-opacity:1;fill-rule:nonzero;stroke:none;font-family:Sans;-inkscape-font-specification:Sans"
             x="0"
             y="0"
             id="tspan500">4</tspan></text>
</g></g><g
       id="g502"
       transform="translate(335.883,639.524)"
       style="fill:#000000"><g
         id="g504"
         transform="translate(0,-786.864)"
         style="fill:#000000"><text
           transform="matrix(1,0,0,-1,0,786.864)"
           id="text506"
           style="fill:#000000"><tspan
             style="font-size:7.97009993px;font-variant:normal;font-weight:normal;writing-mode:lr-tb;fill:#000000;fill-opacity:1;fill-rule:nonzero;stroke:none;font-family:Sans;-inkscape-font-specification:Sans"
             x="0"
             y="0"
             id="tspan508">5</tspan></text>
</g></g><g
       id="g510"
       transform="translate(371.883,639.524)"
       style="fill:#000000"><g
         id="g512"
         transform="translate(0,-786.864)"
         style="fill:#000000"><text
           transform="matrix(1,0,0,-1,0,786.864)"
           id="text514"
           style="fill:#000000"><tspan
             style="font-size:7.97009993px;font-variant:normal;font-weight:normal;writing-mode:lr-tb;fill:#000000;fill-opacity:1;fill-rule:nonzero;stroke:none;font-family:Sans;-inkscape-font-specification:Sans"
             x="0"
             y="0"
             id="tspan516">6</tspan></text>
</g></g><g
       id="g518"
       style="fill:#000000;stroke:none"><path
         d="m 363.781,668.444 c 0,0.984 -0.797,1.781 -1.781,1.781 -0.984,0 -1.781,-0.797 -1.781,-1.781 0,-0.983 0.797,-1.781 1.781,-1.781 0.984,0 1.781,0.798 1.781,1.781"
         style="fill:#000000;fill-opacity:1;fill-rule:evenodd;stroke:none"
         id="path520"
         inkscape:connector-curvature="0" /></g><g
       id="g522"
       style="fill:#000000"><g
         id="g524"
         style="fill:#000000"><path
           d="m 135.8,689.23 c 0,0.994 -0.806,1.799 -1.8,1.799 -0.994,0 -1.8,-0.805 -1.8,-1.799 0,-0.995 0.806,-1.8 1.8,-1.8 0.994,0 1.8,0.805 1.8,1.8"
           style="fill:#000000;fill-opacity:1;fill-rule:evenodd;stroke:none"
           id="path526"
           inkscape:connector-curvature="0" /></g></g><path
       sodipodi:type="arc"
       style="fill:none;stroke:#b3b3b3;stroke-opacity:1"
       id="path3663"
       sodipodi:cx="33.148163"
       sodipodi:cy="82.518295"
       sodipodi:rx="17.478123"
       sodipodi:ry="17.478123"
       d="m 50.626286,82.518295 c 0,9.652901 -7.825223,17.478123 -17.478123,17.478123 -9.652901,0 -17.478123,-7.825222 -17.478123,-17.478123 0,-9.6529 7.825222,-17.478122 17.478123,-17.478122 9.6529,0 17.478123,7.825222 17.478123,17.478122 z"
       transform="matrix(0.73393063,0,0,-0.72477997,91.598348,708.29969)" /><g
       id="g3804"
       transform="matrix(0.10385731,0,0,0.10385731,78.009978,560.81051)"><path
         sodipodi:open="true"
         sodipodi:end="4.712389"
         sodipodi:start="3.1415927"
         transform="translate(198.06299,372.09796)"
         d="m 173.25703,350.16268 c 1e-5,-51.36892 41.64275,-93.01166 93.01168,-93.01166"
         sodipodi:ry="93.011673"
         sodipodi:rx="93.011673"
         sodipodi:cy="350.16269"
         sodipodi:cx="266.26871"
         id="path2983-4"
         style="fill:none;stroke:#b3b3b3;stroke-width:14.37699986;stroke-linejoin:round;stroke-miterlimit:4;stroke-opacity:1;stroke-dasharray:none;stroke-dashoffset:0"
         sodipodi:type="arc" /><path
         sodipodi:nodetypes="ccccssccccccsscccc"
         id="text12508-8-7-6"
         d="m 501.54527,629.54897 c -0.0338,0.0903 -0.11502,0.21263 -0.3031,0.33931 l -33.93918,17.6738 c -1.0058,0.42603 -1.41862,0.44403 -2.27317,0.45407 -1.11113,2e-5 -2.07116,-0.22461 -2.87932,-0.6836 -0.80808,-0.45899 -1.21231,-1.14777 -1.21235,-2.06577 4e-5,-0.3825 0.70504,-2.2321 0.705,-2.3851 l 0.96197,-2.54979 1.36391,-3.55772 c 0.30087,-5.12806 -0.0763,-9.17299 0,-14.33564 l -1.36391,-3.67247 -0.96197,-2.54979 c 4e-5,-0.153 -0.70496,-2.00262 -0.705,-2.3851 4e-5,-0.918 0.40427,-1.60678 1.21235,-2.06578 0.80816,-0.459 1.76819,-0.68859 2.87932,-0.68859 0.85455,0.01 1.26737,0.033 2.27317,0.45907 l 33.93918,17.66882 c 0.18808,0.12666 0.26925,0.25395 0.3031,0.34428 z"
         style="font-size:718.64801025px;font-style:normal;font-weight:normal;fill:#b3b3b3;fill-opacity:1;stroke:none"
         inkscape:connector-curvature="0" /></g><g
       id="g3922"
       transform="translate(-0.72032385,1.6)"><g
         style="fill:#000000"
         transform="translate(230.54052,611.83052)"
         id="g26"><g
           style="fill:#000000"
           transform="translate(0,-786.864)"
           id="g28"><text
             style="fill:#000000"
             id="text30"
             transform="matrix(1,0,0,-1,0,786.864)"><tspan
               id="tspan32"
               y="0"
               x="0"
               style="font-size:7.97009993px;font-variant:normal;font-weight:normal;writing-mode:lr-tb;fill:#000000;fill-opacity:1;fill-rule:nonzero;stroke:none;font-family:Sans;-inkscape-font-specification:Sans">2</tspan></text>
</g></g><g
         style="fill:#000000"
         transform="translate(242.54052,611.83052)"
         id="g34"><g
           style="fill:#000000"
           transform="translate(0,-786.864)"
           id="g36"><text
             style="fill:#000000"
             id="text38"
             transform="matrix(1,0,0,-1,0,786.864)"><tspan
               id="tspan40"
               y="0"
               x="0"
               style="font-size:7.97009993px;font-variant:normal;font-weight:normal;writing-mode:lr-tb;fill:#000000;fill-opacity:1;fill-rule:nonzero;stroke:none;font-family:Sans;-inkscape-font-specification:Sans">3</tspan></text>
</g></g><g
         transform="translate(14.657516,-27.69348)"
         style="fill:#000000"
         id="g82"><g
           style="fill:#000000"
           id="g84"><path
             id="path86"
             style="fill:#000000;fill-opacity:1;fill-rule:evenodd;stroke:none"
             d="m 219.8,647.66 c 0,0.994 -0.806,1.8 -1.8,1.8 -0.994,0 -1.8,-0.806 -1.8,-1.8 0,-0.994 0.806,-1.8 1.8,-1.8 0.994,0 1.8,0.806 1.8,1.8"
             inkscape:connector-curvature="0" /></g></g><g
         transform="translate(14.657516,-27.69348)"
         style="fill:#000000"
         id="g88"><g
           style="fill:#000000"
           id="g90"><path
             id="path92"
             style="fill:#000000;fill-opacity:1;fill-rule:evenodd;stroke:none"
             d="m 231.8,647.66 c 0,0.994 -0.806,1.8 -1.8,1.8 -0.994,0 -1.8,-0.806 -1.8,-1.8 0,-0.994 0.806,-1.8 1.8,-1.8 0.994,0 1.8,0.806 1.8,1.8"
             inkscape:connector-curvature="0" /></g></g><g
         transform="translate(14.657516,-27.69348)"
         style="fill:#000000"
         id="g130"><g
           style="fill:#000000"
           id="g132"><path
             id="path134"
             style="fill:#000000;fill-opacity:1;fill-rule:evenodd;stroke:none"
             d="m 225.8,658.052 c 0,0.994 -0.806,1.8 -1.8,1.8 -0.994,0 -1.8,-0.806 -1.8,-1.8 0,-0.994 0.806,-1.8 1.8,-1.8 0.994,0 1.8,0.806 1.8,1.8"
             inkscape:connector-curvature="0" /></g></g><g
         transform="translate(14.657516,-27.69348)"
         style="fill:#000000;stroke:#000000"
         id="g140"><path
           id="path142"
           style="fill:#000000;stroke:#000000;stroke-width:0.40000001;stroke-linecap:butt;stroke-linejoin:round;stroke-miterlimit:10;stroke-opacity:1;stroke-dasharray:none"
           d="m 218,647.66 6,10.392"
           inkscape:connector-curvature="0" /></g><g
         transform="translate(14.657516,-27.69348)"
         style="fill:#000000;stroke:#000000"
         id="g144"><path
           id="path146"
           style="fill:#000000;stroke:#000000;stroke-width:0.40000001;stroke-linecap:butt;stroke-linejoin:round;stroke-miterlimit:10;stroke-opacity:1;stroke-dasharray:none"
           d="m 230,647.66 -6,10.392"
           inkscape:connector-curvature="0" /></g><path
         sodipodi:type="arc"
         style="fill:none;stroke:#b3b3b3;stroke-opacity:1"
         id="path3810"
         sodipodi:cx="33.148163"
         sodipodi:cy="82.518295"
         sodipodi:rx="17.478123"
         sodipodi:ry="17.478123"
         d="m 50.626286,82.518295 c 0,9.652901 -7.825223,17.478123 -17.478123,17.478123 -9.652901,0 -17.478123,-7.825222 -17.478123,-17.478123 0,-9.6529 7.825222,-17.478122 17.478123,-17.478122 9.6529,0 17.478123,7.825222 17.478123,17.478122 z"
         transform="matrix(0,0.73393063,0.72477997,0,178.85078,596.73413)" /><g
         id="g3812"
         transform="matrix(0,0.10385731,-0.10385731,0,326.46609,583.26816)"><path
           sodipodi:open="true"
           sodipodi:end="4.712389"
           sodipodi:start="3.1415927"
           transform="translate(198.06299,372.09796)"
           d="m 173.25703,350.16268 c 1e-5,-51.36892 41.64275,-93.01166 93.01168,-93.01166"
           sodipodi:ry="93.011673"
           sodipodi:rx="93.011673"
           sodipodi:cy="350.16269"
           sodipodi:cx="266.26871"
           id="path3814"
           style="fill:none;stroke:#b3b3b3;stroke-width:14.37699986;stroke-linejoin:round;stroke-miterlimit:4;stroke-opacity:1;stroke-dasharray:none;stroke-dashoffset:0"
           sodipodi:type="arc" /><path
           sodipodi:nodetypes="ccccssccccccsscccc"
           id="path3816"
           d="m 501.54527,629.54897 c -0.0338,0.0903 -0.11502,0.21263 -0.3031,0.33931 l -33.93918,17.6738 c -1.0058,0.42603 -1.41862,0.44403 -2.27317,0.45407 -1.11113,2e-5 -2.07116,-0.22461 -2.87932,-0.6836 -0.80808,-0.45899 -1.21231,-1.14777 -1.21235,-2.06577 4e-5,-0.3825 0.70504,-2.2321 0.705,-2.3851 l 0.96197,-2.54979 1.36391,-3.55772 c 0.30087,-5.12806 -0.0763,-9.17299 0,-14.33564 l -1.36391,-3.67247 -0.96197,-2.54979 c 4e-5,-0.153 -0.70496,-2.00262 -0.705,-2.3851 4e-5,-0.918 0.40427,-1.60678 1.21235,-2.06578 0.80816,-0.459 1.76819,-0.68859 2.87932,-0.68859 0.85455,0.01 1.26737,0.033 2.27317,0.45907 l 33.93918,17.66882 c 0.18808,0.12666 0.26925,0.25395 0.3031,0.34428 z"
           style="font-size:718.64801025px;font-style:normal;font-weight:normal;fill:#b3b3b3;fill-opacity:1;stroke:none"
           inkscape:connector-curvature="0" /></g></g><g
       transform="matrix(-0.1567915,0,0,-0.1567915,139.62949,833.14536)"
       id="layer1"
       style="fill:#660080"><g
         transform="matrix(4.2610846,-1.2351263,1.2351263,4.2610846,-1337.7659,-2994.9736)"
         id="g4593"
         style="fill:#660080"><path
           inkscape:connector-curvature="0"
           d="m 59.731665,956.40057 c -0.609784,-1.39286 -2.303491,-1.83556 -3.698902,-1.71226 l -8.742604,0.69566 c -1.935736,-1.91425 -4.307466,-2.2049 -4.132136,-2.81651 0.137044,-0.47806 0.545993,-0.24745 0.837105,-1.51102 0.279511,-1.21323 -0.714709,-2.45509 -1.916471,-2.71488 -1.177727,-0.34526 -2.659814,0.20827 -3.027677,1.45195 -0.447882,1.23061 0.273869,2.69969 1.499535,3.14003 1.400938,0.6374 4.246607,0.49379 4.837778,3.02096 -1.384807,1.41129 -2.993148,0.95525 -4.422137,0.4551 -1.186382,-0.41524 -2.734347,-0.48487 -3.649629,0.53589 -0.881717,0.97694 -0.800158,2.7506 0.376675,3.46434 1.15277,0.8421 3.093263,0.7518 3.824279,-0.64172 0.563472,-1.07414 -0.09119,-1.84242 0.337995,-2.16796 0.32384,-0.24563 1.759155,0.36194 4.749906,-0.0686 l 7.684693,5.46398 c 0.993719,0.61119 2.316503,0.97947 3.577814,0.19164 l -7.902726,-5.8909 9.766502,-0.89574 z m -17.075242,-6.87194 c 1.045256,1.05155 0.403306,2.90727 -0.994512,2.90157 -1.286163,0.072 -2.454591,-1.49318 -1.718425,-2.65375 0.516476,-0.97737 1.997384,-0.96769 2.712937,-0.24782 z m -2.155235,7.72245 c 1.161058,0.85179 0.310724,2.98566 -1.0944,2.9024 -0.962958,0.053 -2.089598,-0.7434 -1.882399,-1.80058 0.188897,-1.30347 1.988129,-2.01427 2.976799,-1.10182 z"
           id="path4599"
           style="marker-start:none;fill:#660080" /></g></g></g></svg>
