<?xml version="1.0" encoding="utf-8" standalone="no"?>
<!DOCTYPE svg PUBLIC "-//W3C//DTD SVG 1.1//EN"
  "http://www.w3.org/Graphics/SVG/1.1/DTD/svg11.dtd">
<!-- Created with matplotlib (http://matplotlib.org/) -->
<svg height="396pt" version="1.1" viewBox="0 0 576 396" width="576pt" xmlns="http://www.w3.org/2000/svg" xmlns:xlink="http://www.w3.org/1999/xlink">
 <defs>
  <style type="text/css">
*{stroke-linecap:butt;stroke-linejoin:round;}
  </style>
 </defs>
 <g id="figure_1">
  <g id="patch_1">
   <path d="
M0 396
L576 396
L576 0
L0 0
z
" style="fill:#ffffff;"/>
  </g>
  <g id="axes_1">
   <g id="patch_2">
    <path d="
M72 356.4
L518.4 356.4
L518.4 39.6
L72 39.6
z
" style="fill:#ffffff;"/>
   </g>
   <g id="matplotlib.axis_1">
    <g id="xtick_1">
     <g id="line2d_1">
      <defs>
       <path d="
M0 0
L0 6" id="m44d4eda7dc" style="stroke:#262626;"/>
      </defs>
      <g>
       <use style="fill:#262626;stroke:#262626;" x="72.0" xlink:href="#m44d4eda7dc" y="366.4"/>
      </g>
     </g>
     <g id="text_1">
      <!-- 3.0 -->
      <defs>
       <path d="
M3.65625 6.79688
Q3.65625 8.34375 4.21875 9.75
Q4.79688 11.1562 5.8125 12.1562
Q6.84375 13.1562 8.25 13.75
Q9.65625 14.3438 11.25 14.3438
Q12.7969 14.3438 14.1875 13.75
Q15.5938 13.1562 16.5938 12.1562
Q17.5938 11.1562 18.1875 9.75
Q18.7969 8.34375 18.7969 6.79688
Q18.7969 5.20312 18.1875 3.82812
Q17.5938 2.45312 16.5938 1.45312
Q15.5938 0.453125 14.1875 -0.125
Q12.7969 -0.703125 11.25 -0.703125
Q9.65625 -0.703125 8.25 -0.125
Q6.84375 0.453125 5.8125 1.45312
Q4.79688 2.45312 4.21875 3.82812
Q3.65625 5.20312 3.65625 6.79688" id="Lato-Bold-2e"/>
       <path d="
M31.25 73.0938
Q36.25 73.0938 40.2656 71.6719
Q44.2969 70.25 47.1406 67.7188
Q50 65.2031 51.5156 61.7969
Q53.0469 58.4062 53.0469 54.4531
Q53.0469 51 52.2656 48.375
Q51.5 45.75 50.0156 43.7969
Q48.5469 41.8438 46.4219 40.5
Q44.2969 39.1562 41.5938 38.25
Q48.0938 36.2031 51.2969 32
Q54.5 27.7969 54.5 21.4531
Q54.5 16.0469 52.5 11.8906
Q50.5 7.75 47.0938 4.92188
Q43.7031 2.09375 39.2188 0.640625
Q34.75 -0.796875 29.75 -0.796875
Q24.2969 -0.796875 20.25 0.453125
Q16.2031 1.70312 13.2031 4.14062
Q10.2031 6.59375 8.09375 10.1406
Q6 13.7031 4.5 18.3438
L9.95312 20.5938
Q11.3438 21.2031 12.7969 21.2031
Q14.0938 21.2031 15.125 20.6406
Q16.1562 20.0938 16.7031 19.0469
Q17.5938 17.2969 18.6719 15.5938
Q19.75 13.9062 21.25 12.5781
Q22.75 11.25 24.7656 10.4219
Q26.7969 9.59375 29.5938 9.59375
Q32.75 9.59375 35.0938 10.625
Q37.4531 11.6562 39.0156 13.2969
Q40.5938 14.9531 41.375 16.9688
Q42.1562 19 42.1562 21.0469
Q42.1562 23.6562 41.5938 25.7812
Q41.0469 27.9062 39.2969 29.4062
Q37.5469 30.9062 34.2656 31.75
Q31 32.5938 25.5 32.5938
L25.5 41.4062
Q30.0469 41.4531 33.0469 42.25
Q36.0469 43.0469 37.8125 44.4688
Q39.5938 45.9062 40.2969 47.9062
Q41 49.9062 41 52.2969
Q41 57.4531 38.2031 60.0781
Q35.4062 62.7031 30.5469 62.7031
Q26.1562 62.7031 23.25 60.375
Q20.3438 58.0469 19.2031 54.4062
Q18.5938 52.5 17.5469 51.6719
Q16.5 50.8438 14.7969 50.8438
Q14 50.8438 13.0938 51
L6.59375 52.1562
Q7.34375 57.3438 9.5 61.2656
Q11.6562 65.2031 14.875 67.8281
Q18.0938 70.4531 22.2656 71.7656
Q26.4531 73.0938 31.25 73.0938" id="Lato-Bold-33"/>
       <path d="
M55.5 36.1562
Q55.5 26.7031 53.4688 19.7188
Q51.4531 12.75 47.875 8.20312
Q44.2969 3.65625 39.4219 1.42188
Q34.5469 -0.796875 28.9062 -0.796875
Q23.25 -0.796875 18.4219 1.42188
Q13.5938 3.65625 10.0469 8.20312
Q6.5 12.75 4.5 19.7188
Q2.5 26.7031 2.5 36.1562
Q2.5 45.6562 4.5 52.5938
Q6.5 59.5469 10.0469 64.0938
Q13.5938 68.6562 18.4219 70.875
Q23.25 73.0938 28.9062 73.0938
Q34.5469 73.0938 39.4219 70.875
Q44.2969 68.6562 47.875 64.0938
Q51.4531 59.5469 53.4688 52.5938
Q55.5 45.6562 55.5 36.1562
M42.75 36.1562
Q42.75 44 41.5938 49.1406
Q40.4531 54.2969 38.5156 57.3438
Q36.5938 60.4062 34.0938 61.625
Q31.5938 62.8438 28.9062 62.8438
Q26.25 62.8438 23.7656 61.625
Q21.2969 60.4062 19.3906 57.3438
Q17.5 54.2969 16.375 49.1406
Q15.25 44 15.25 36.1562
Q15.25 28.2969 16.375 23.1406
Q17.5 18 19.3906 14.9531
Q21.2969 11.9062 23.7656 10.6719
Q26.25 9.45312 28.9062 9.45312
Q31.5938 9.45312 34.0938 10.6719
Q36.5938 11.9062 38.5156 14.9531
Q40.4531 18 41.5938 23.1406
Q42.75 28.2969 42.75 36.1562" id="Lato-Bold-30"/>
      </defs>
      <g style="fill:#262626;" transform="translate(58.85 394.259375)scale(0.2 -0.2)">
       <use xlink:href="#Lato-Bold-33"/>
       <use x="58.0" xlink:href="#Lato-Bold-2e"/>
       <use x="80.5" xlink:href="#Lato-Bold-30"/>
      </g>
     </g>
    </g>
    <g id="xtick_2">
     <g id="line2d_2">
      <g>
       <use style="fill:#262626;stroke:#262626;" x="161.28" xlink:href="#m44d4eda7dc" y="366.4"/>
      </g>
     </g>
     <g id="text_2">
      <!-- 3.2 -->
      <defs>
       <path d="
M30.0938 73.0938
Q35.0938 73.0938 39.25 71.625
Q43.4062 70.1562 46.3438 67.4531
Q49.2969 64.75 50.9375 60.9531
Q52.5938 57.1562 52.5938 52.5
Q52.5938 48.5 51.4219 45.0938
Q50.25 41.7031 48.2656 38.5938
Q46.2969 35.5 43.6406 32.5938
Q41 29.7031 38.0938 26.7031
L21.7969 10.0469
Q24.2031 10.75 26.5 11.125
Q28.7969 11.5 30.9062 11.5
L49.4531 11.5
Q51.4531 11.5 52.625 10.375
Q53.7969 9.25 53.7969 7.40625
L53.7969 0
L4.20312 0
L4.20312 4.09375
Q4.20312 5.34375 4.71875 6.6875
Q5.25 8.04688 6.40625 9.20312
L28.3438 31.2031
Q31.0938 34 33.2656 36.5469
Q35.4531 39.0938 36.9219 41.5938
Q38.4062 44.0938 39.1719 46.6719
Q39.9531 49.25 39.9531 52.0938
Q39.9531 54.7031 39.2031 56.6719
Q38.4531 58.6562 37.0469 60
Q35.6562 61.3438 33.7188 62.0156
Q31.7969 62.7031 29.4062 62.7031
Q24.9531 62.7031 22.0781 60.4531
Q19.2031 58.2031 18.0469 54.4062
Q17.5 52.5 16.3906 51.6719
Q15.2969 50.8438 13.5938 50.8438
Q12.8438 50.8438 11.9531 51
L5.45312 52.1562
Q6.20312 57.3438 8.34375 61.2656
Q10.5 65.2031 13.7188 67.8281
Q16.9531 70.4531 21.125 71.7656
Q25.2969 73.0938 30.0938 73.0938" id="Lato-Bold-32"/>
      </defs>
      <g style="fill:#262626;" transform="translate(148.3003125 394.259375)scale(0.2 -0.2)">
       <use xlink:href="#Lato-Bold-33"/>
       <use x="58.0" xlink:href="#Lato-Bold-2e"/>
       <use x="80.5" xlink:href="#Lato-Bold-32"/>
      </g>
     </g>
    </g>
    <g id="xtick_3">
     <g id="line2d_3">
      <g>
       <use style="fill:#262626;stroke:#262626;" x="250.56" xlink:href="#m44d4eda7dc" y="366.4"/>
      </g>
     </g>
     <g id="text_3">
      <!-- 3.4 -->
      <defs>
       <path d="
M47.0938 27.25
L56.2031 27.25
L56.2031 20.0938
Q56.2031 19.0938 55.5469 18.375
Q54.9062 17.6562 53.6562 17.6562
L47.0938 17.6562
L47.0938 0
L36.2969 0
L36.2969 17.6562
L5.79688 17.6562
Q4.54688 17.6562 3.59375 18.4219
Q2.65625 19.2031 2.40625 20.3438
L1.15625 26.5938
L35.4062 72.3438
L47.0938 72.3438
z

M36.2969 50.9062
Q36.2969 52.5 36.3906 54.3438
Q36.5 56.2031 36.75 58.2031
L14.2969 27.25
L36.2969 27.25
z
" id="Lato-Bold-34"/>
      </defs>
      <g style="fill:#262626;" transform="translate(237.3396875 394.259375)scale(0.2 -0.2)">
       <use xlink:href="#Lato-Bold-33"/>
       <use x="58.0" xlink:href="#Lato-Bold-2e"/>
       <use x="80.5" xlink:href="#Lato-Bold-34"/>
      </g>
     </g>
    </g>
    <g id="xtick_4">
     <g id="line2d_4">
      <g>
       <use style="fill:#262626;stroke:#262626;" x="339.84" xlink:href="#m44d4eda7dc" y="366.4"/>
      </g>
     </g>
     <g id="text_4">
      <!-- 3.6 -->
      <defs>
       <path d="
M33.5 45.1562
Q37.5938 45.1562 41.4688 43.7969
Q45.3438 42.4531 48.2969 39.7188
Q51.25 37 53.0469 32.9531
Q54.8438 28.9062 54.8438 23.5
Q54.8438 18.4531 53 14.0156
Q51.1562 9.59375 47.7969 6.29688
Q44.4531 3 39.7188 1.09375
Q35 -0.796875 29.2969 -0.796875
Q23.5 -0.796875 18.8906 1.04688
Q14.2969 2.90625 11.0469 6.21875
Q7.79688 9.54688 6.0625 14.2188
Q4.34375 18.9062 4.34375 24.5938
Q4.34375 29.7031 6.42188 35.0781
Q8.5 40.4531 12.8438 46.25
L30.0938 69.4062
Q31 70.5938 32.7188 71.4375
Q34.4531 72.2969 36.7031 72.2969
L47.7031 72.2969
L26.25 46.0469
Q25.5469 45.2031 24.9219 44.4531
Q24.2969 43.7031 23.7031 42.9062
Q25.7969 43.9531 28.2188 44.5469
Q30.6562 45.1562 33.5 45.1562
M16.2031 22.7031
Q16.2031 19.7031 17.0156 17.2188
Q17.8438 14.75 19.4688 13
Q21.0938 11.25 23.5 10.2656
Q25.9062 9.29688 29.0469 9.29688
Q32 9.29688 34.4688 10.2969
Q36.9531 11.2969 38.7188 13.0938
Q40.5 14.9062 41.5 17.3281
Q42.5 19.75 42.5 22.5938
Q42.5 25.7031 41.5469 28.1719
Q40.5938 30.6562 38.8438 32.375
Q37.0938 34.0938 34.6406 35
Q32.2031 35.9062 29.25 35.9062
Q26.2969 35.9062 23.8906 34.9062
Q21.5 33.9062 19.7656 32.125
Q18.0469 30.3438 17.125 27.9219
Q16.2031 25.5 16.2031 22.7031" id="Lato-Bold-36"/>
      </defs>
      <g style="fill:#262626;" transform="translate(326.755625 394.259375)scale(0.2 -0.2)">
       <use xlink:href="#Lato-Bold-33"/>
       <use x="58.0" xlink:href="#Lato-Bold-2e"/>
       <use x="80.5" xlink:href="#Lato-Bold-36"/>
      </g>
     </g>
    </g>
    <g id="xtick_5">
     <g id="line2d_5">
      <g>
       <use style="fill:#262626;stroke:#262626;" x="429.12" xlink:href="#m44d4eda7dc" y="366.4"/>
      </g>
     </g>
     <g id="text_5">
      <!-- 3.8 -->
      <defs>
       <path d="
M29 -0.796875
Q23.4062 -0.796875 18.7812 0.703125
Q14.1562 2.20312 10.8438 4.95312
Q7.54688 7.70312 5.71875 11.5938
Q3.90625 15.5 3.90625 20.2969
Q3.90625 26.7031 7.04688 31.125
Q10.2031 35.5469 16.8438 37.7031
Q11.5469 39.9062 8.92188 43.9531
Q6.29688 48 6.29688 53.7031
Q6.29688 57.7969 7.96875 61.3438
Q9.65625 64.9062 12.6562 67.5312
Q15.6562 70.1562 19.8281 71.625
Q24 73.0938 29 73.0938
Q34 73.0938 38.1719 71.625
Q42.3438 70.1562 45.3438 67.5312
Q48.3438 64.9062 50.0156 61.3438
Q51.7031 57.7969 51.7031 53.7031
Q51.7031 48 49.0469 43.9531
Q46.4062 39.9062 41.1562 37.7031
Q47.7969 35.5469 50.9375 31.125
Q54.0938 26.7031 54.0938 20.2969
Q54.0938 15.5 52.2656 11.5938
Q50.4531 7.70312 47.1406 4.95312
Q43.8438 2.20312 39.2188 0.703125
Q34.5938 -0.796875 29 -0.796875
M29 8.84375
Q32.0469 8.84375 34.3438 9.71875
Q36.6562 10.5938 38.2188 12.1406
Q39.7969 13.7031 40.5938 15.8438
Q41.4062 18 41.4062 20.5
Q41.4062 26.4531 38.0938 29.5
Q34.7969 32.5469 29 32.5469
Q23.2031 32.5469 19.8906 29.5
Q16.5938 26.4531 16.5938 20.5
Q16.5938 18 17.3906 15.8438
Q18.2031 13.7031 19.7656 12.1406
Q21.3438 10.5938 23.6406 9.71875
Q25.9531 8.84375 29 8.84375
M29 42.25
Q32 42.25 34.0469 43.2031
Q36.0938 44.1562 37.3438 45.7188
Q38.5938 47.2969 39.125 49.3125
Q39.6562 51.3438 39.6562 53.5
Q39.6562 55.5469 39 57.3906
Q38.3438 59.25 37.0469 60.6719
Q35.75 62.0938 33.75 62.9375
Q31.75 63.7969 29 63.7969
Q26.25 63.7969 24.25 62.9375
Q22.25 62.0938 20.9219 60.6719
Q19.5938 59.25 18.9688 57.3906
Q18.3438 55.5469 18.3438 53.5
Q18.3438 51.3438 18.875 49.3125
Q19.4062 47.2969 20.6562 45.7188
Q21.9062 44.1562 23.9531 43.2031
Q26 42.25 29 42.25" id="Lato-Bold-38"/>
      </defs>
      <g style="fill:#262626;" transform="translate(416.110625 394.259375)scale(0.2 -0.2)">
       <use xlink:href="#Lato-Bold-33"/>
       <use x="58.0" xlink:href="#Lato-Bold-2e"/>
       <use x="80.5" xlink:href="#Lato-Bold-38"/>
      </g>
     </g>
    </g>
    <g id="xtick_6">
     <g id="line2d_6">
      <g>
       <use style="fill:#262626;stroke:#262626;" x="518.4" xlink:href="#m44d4eda7dc" y="366.4"/>
      </g>
     </g>
     <g id="text_6">
      <!-- 4.0 -->
      <g style="fill:#262626;" transform="translate(504.915625 394.259375)scale(0.2 -0.2)">
       <use xlink:href="#Lato-Bold-34"/>
       <use x="58.0" xlink:href="#Lato-Bold-2e"/>
       <use x="80.5" xlink:href="#Lato-Bold-30"/>
      </g>
     </g>
    </g>
    <g id="text_7">
     <!-- leaves -->
     <defs>
      <path d="
M46.7969 0
L41.25 0
Q39.5 0 38.5 0.515625
Q37.5 1.04688 37 2.65625
L35.9062 6.29688
Q33.9531 4.54688 32.0781 3.21875
Q30.2031 1.90625 28.2031 1
Q26.2031 0.09375 23.9531 -0.34375
Q21.7031 -0.796875 18.9531 -0.796875
Q15.7031 -0.796875 12.9531 0.078125
Q10.2031 0.953125 8.21875 2.70312
Q6.25 4.45312 5.14062 7.04688
Q4.04688 9.65625 4.04688 13.0938
Q4.04688 16 5.5625 18.8281
Q7.09375 21.6562 10.6406 23.9219
Q14.2031 26.2031 20.0938 27.7031
Q26 29.2031 34.75 29.4062
L34.75 32.4062
Q34.75 37.5469 32.5781 40.0156
Q30.4062 42.5 26.25 42.5
Q23.25 42.5 21.25 41.7969
Q19.25 41.0938 17.7656 40.2188
Q16.2969 39.3438 15.0469 38.6406
Q13.7969 37.9531 12.2969 37.9531
Q11.0469 37.9531 10.1406 38.5938
Q9.25 39.25 8.70312 40.2031
L6.45312 44.1562
Q15.2969 52.25 27.7969 52.25
Q32.2969 52.25 35.8125 50.7656
Q39.3438 49.2969 41.7969 46.6719
Q44.25 44.0469 45.5156 40.3906
Q46.7969 36.75 46.7969 32.4062
z

M22.7969 7.70312
Q24.7031 7.70312 26.2969 8.04688
Q27.9062 8.40625 29.3281 9.09375
Q30.75 9.79688 32.0781 10.8125
Q33.4062 11.8438 34.75 13.25
L34.75 21.9062
Q29.3438 21.6562 25.7188 20.9688
Q22.0938 20.2969 19.8906 19.25
Q17.7031 18.2031 16.7656 16.7969
Q15.8438 15.4062 15.8438 13.75
Q15.8438 10.5 17.7656 9.09375
Q19.7031 7.70312 22.7969 7.70312" id="Lato-Bold-61"/>
      <path d="
M32.2969 0
L21.0938 0
L0.703125 51.2969
L10.9531 51.2969
Q12.2969 51.2969 13.2188 50.6406
Q14.1562 50 14.5 49
L24.4062 21.5938
Q25.25 19.2031 25.8281 16.8906
Q26.4062 14.5938 26.8438 12.2969
Q27.2969 14.5938 27.875 16.8906
Q28.4531 19.2031 29.3438 21.5938
L39.5 49
Q39.8438 50 40.75 50.6406
Q41.6562 51.2969 42.9062 51.2969
L52.6562 51.2969
z
" id="Lato-Bold-76"/>
      <path d="
M19.75 74.2969
L19.75 0
L7.40625 0
L7.40625 74.2969
z
" id="Lato-Bold-6c"/>
      <path d="
M27.7969 52.0938
Q32.6562 52.0938 36.7188 50.5469
Q40.7969 49 43.75 46.0156
Q46.7031 43.0469 48.3438 38.7188
Q50 34.4062 50 28.8438
Q50 27.4531 49.875 26.5156
Q49.75 25.5938 49.4219 25.0625
Q49.0938 24.5469 48.5469 24.3125
Q48 24.0938 47.1562 24.0938
L15.4531 24.0938
Q16 16.2031 19.7031 12.5
Q23.4062 8.79688 29.5 8.79688
Q32.5 8.79688 34.6719 9.5
Q36.8438 10.2031 38.4688 11.0469
Q40.0938 11.9062 41.3125 12.5938
Q42.5469 13.2969 43.7031 13.2969
Q44.4531 13.2969 45 13
Q45.5469 12.7031 45.9531 12.1562
L49.5469 7.65625
Q47.5 5.25 44.9531 3.625
Q42.4062 2 39.625 1.01562
Q36.8438 0.046875 33.9688 -0.34375
Q31.0938 -0.75 28.4062 -0.75
Q23.0469 -0.75 18.4375 1.01562
Q13.8438 2.79688 10.4375 6.26562
Q7.04688 9.75 5.09375 14.875
Q3.15625 20 3.15625 26.75
Q3.15625 32 4.84375 36.625
Q6.54688 41.25 9.71875 44.6719
Q12.9062 48.0938 17.4688 50.0938
Q22.0469 52.0938 27.7969 52.0938
M28.0469 43.25
Q22.6562 43.25 19.5938 40.2031
Q16.5469 37.1562 15.7031 31.5469
L38.9062 31.5469
Q38.9062 33.9531 38.25 36.0781
Q37.5938 38.2031 36.25 39.7969
Q34.9062 41.4062 32.8438 42.3281
Q30.7969 43.25 28.0469 43.25" id="Lato-Bold-65"/>
      <path d="
M37.0469 41.2969
Q36.5469 40.5 36 40.1719
Q35.4531 39.8438 34.5938 39.8438
Q33.7031 39.8438 32.6719 40.3438
Q31.6562 40.8438 30.2969 41.4688
Q28.9531 42.0938 27.2188 42.5938
Q25.5 43.0938 23.1562 43.0938
Q19.5 43.0938 17.3906 41.5469
Q15.2969 40 15.2969 37.5
Q15.2969 35.8438 16.375 34.7188
Q17.4531 33.5938 19.2188 32.75
Q21 31.9062 23.25 31.2188
Q25.5 30.5469 27.8438 29.75
Q30.2031 28.9531 32.4531 27.9219
Q34.7031 26.9062 36.4688 25.3281
Q38.25 23.75 39.3281 21.5469
Q40.4062 19.3438 40.4062 16.25
Q40.4062 12.5469 39.0469 9.42188
Q37.7031 6.29688 35.0938 4.01562
Q32.5 1.75 28.6719 0.46875
Q24.8438 -0.796875 19.9062 -0.796875
Q17.25 -0.796875 14.7188 -0.3125
Q12.2031 0.15625 9.875 1
Q7.54688 1.84375 5.5625 3
Q3.59375 4.15625 2.09375 5.5
L4.95312 10.2031
Q5.5 11.0469 6.25 11.5
Q7 11.9531 8.15625 11.9531
Q9.29688 11.9531 10.3125 11.2969
Q11.3438 10.6562 12.6875 9.90625
Q14.0469 9.15625 15.875 8.5
Q17.7031 7.84375 20.5 7.84375
Q22.7031 7.84375 24.2656 8.375
Q25.8438 8.90625 26.875 9.75
Q27.9062 10.5938 28.375 11.7188
Q28.8438 12.8438 28.8438 14.0469
Q28.8438 15.8438 27.7656 17
Q26.7031 18.1562 24.9219 19
Q23.1562 19.8438 20.875 20.5156
Q18.5938 21.2031 16.2188 22
Q13.8438 22.7969 11.5625 23.875
Q9.29688 24.9531 7.51562 26.5938
Q5.75 28.25 4.67188 30.6406
Q3.59375 33.0469 3.59375 36.4531
Q3.59375 39.5938 4.84375 42.4375
Q6.09375 45.2969 8.51562 47.4219
Q10.9531 49.5469 14.5781 50.8125
Q18.2031 52.0938 22.9531 52.0938
Q28.25 52.0938 32.5938 50.3438
Q36.9531 48.5938 39.8438 45.75
z
" id="Lato-Bold-73"/>
     </defs>
     <g style="fill:#262626;" transform="translate(260.189375 421.9265625)scale(0.26 -0.26)">
      <use xlink:href="#Lato-Bold-6c"/>
      <use x="27.1000061035" xlink:href="#Lato-Bold-65"/>
      <use x="80.5500183105" xlink:href="#Lato-Bold-61"/>
      <use x="131.150024414" xlink:href="#Lato-Bold-76"/>
      <use x="182.875030518" xlink:href="#Lato-Bold-65"/>
      <use x="236.325042725" xlink:href="#Lato-Bold-73"/>
     </g>
    </g>
   </g>
   <g id="matplotlib.axis_2">
    <g id="ytick_1">
     <g id="line2d_7">
      <defs>
       <path d="
M0 0
L-6 0" id="m0dfa6ce036" style="stroke:#262626;"/>
      </defs>
      <g>
       <use style="fill:#262626;stroke:#262626;" x="62.0" xlink:href="#m0dfa6ce036" y="356.4"/>
      </g>
     </g>
     <g id="text_8">
      <!-- 1.0 -->
      <defs>
       <path d="
M13.4531 9.25
L28.0938 9.25
L28.0938 51.4062
Q28.0938 53.8438 28.25 56.5469
L17.8438 47.8438
Q17.2031 47.2969 16.5156 47.0938
Q15.8438 46.9062 15.2031 46.9062
Q14.2031 46.9062 13.375 47.3281
Q12.5469 47.75 12.1562 48.2969
L8.25 53.6562
L30.2969 72.4062
L40.4531 72.4062
L40.4531 9.25
L53.4531 9.25
L53.4531 0
L13.4531 0
z
" id="Lato-Bold-31"/>
      </defs>
      <g style="fill:#262626;" transform="translate(23.45 362.1546875)scale(0.2 -0.2)">
       <use xlink:href="#Lato-Bold-31"/>
       <use x="58.0" xlink:href="#Lato-Bold-2e"/>
       <use x="80.5" xlink:href="#Lato-Bold-30"/>
      </g>
     </g>
    </g>
    <g id="ytick_2">
     <g id="line2d_8">
      <g>
       <use style="fill:#262626;stroke:#262626;" x="62.0" xlink:href="#m0dfa6ce036" y="303.6"/>
      </g>
     </g>
     <g id="text_9">
      <!-- 1.2 -->
      <g style="fill:#262626;" transform="translate(23.790625 309.3546875)scale(0.2 -0.2)">
       <use xlink:href="#Lato-Bold-31"/>
       <use x="58.0" xlink:href="#Lato-Bold-2e"/>
       <use x="80.5" xlink:href="#Lato-Bold-32"/>
      </g>
     </g>
    </g>
    <g id="ytick_3">
     <g id="line2d_9">
      <g>
       <use style="fill:#262626;stroke:#262626;" x="62.0" xlink:href="#m0dfa6ce036" y="250.8"/>
      </g>
     </g>
     <g id="text_10">
      <!-- 1.4 -->
      <g style="fill:#262626;" transform="translate(23.309375 256.5546875)scale(0.2 -0.2)">
       <use xlink:href="#Lato-Bold-31"/>
       <use x="58.0" xlink:href="#Lato-Bold-2e"/>
       <use x="80.5" xlink:href="#Lato-Bold-34"/>
      </g>
     </g>
    </g>
    <g id="ytick_4">
     <g id="line2d_10">
      <g>
       <use style="fill:#262626;stroke:#262626;" x="62.0" xlink:href="#m0dfa6ce036" y="198.0"/>
      </g>
     </g>
     <g id="text_11">
      <!-- 1.6 -->
      <g style="fill:#262626;" transform="translate(23.58125 203.7546875)scale(0.2 -0.2)">
       <use xlink:href="#Lato-Bold-31"/>
       <use x="58.0" xlink:href="#Lato-Bold-2e"/>
       <use x="80.5" xlink:href="#Lato-Bold-36"/>
      </g>
     </g>
    </g>
    <g id="ytick_5">
     <g id="line2d_11">
      <g>
       <use style="fill:#262626;stroke:#262626;" x="62.0" xlink:href="#m0dfa6ce036" y="145.2"/>
      </g>
     </g>
     <g id="text_12">
      <!-- 1.8 -->
      <g style="fill:#262626;" transform="translate(23.73125 150.9546875)scale(0.2 -0.2)">
       <use xlink:href="#Lato-Bold-31"/>
       <use x="58.0" xlink:href="#Lato-Bold-2e"/>
       <use x="80.5" xlink:href="#Lato-Bold-38"/>
      </g>
     </g>
    </g>
    <g id="ytick_6">
     <g id="line2d_12">
      <g>
       <use style="fill:#262626;stroke:#262626;" x="62.0" xlink:href="#m0dfa6ce036" y="92.4"/>
      </g>
     </g>
     <g id="text_13">
      <!-- 2.0 -->
      <g style="fill:#262626;" transform="translate(22.640625 98.1546875)scale(0.2 -0.2)">
       <use xlink:href="#Lato-Bold-32"/>
       <use x="58.0" xlink:href="#Lato-Bold-2e"/>
       <use x="80.5" xlink:href="#Lato-Bold-30"/>
      </g>
     </g>
    </g>
    <g id="ytick_7">
     <g id="line2d_13">
      <g>
       <use style="fill:#262626;stroke:#262626;" x="62.0" xlink:href="#m0dfa6ce036" y="39.6"/>
      </g>
     </g>
     <g id="text_14">
      <!-- 2.2 -->
      <g style="fill:#262626;" transform="translate(22.98125 45.3546875)scale(0.2 -0.2)">
       <use xlink:href="#Lato-Bold-32"/>
       <use x="58.0" xlink:href="#Lato-Bold-2e"/>
       <use x="80.5" xlink:href="#Lato-Bold-32"/>
      </g>
     </g>
    </g>
    <g id="text_15">
     <!-- count -->
     <defs>
      <path d="
M42.6562 40.4531
Q42.0938 39.75 41.5625 39.3438
Q41.0469 38.9531 40.0469 38.9531
Q39.0938 38.9531 38.1875 39.5156
Q37.2969 40.0938 36.0469 40.8125
Q34.7969 41.5469 33.0625 42.125
Q31.3438 42.7031 28.7969 42.7031
Q25.5469 42.7031 23.0938 41.5156
Q20.6562 40.3438 19.0312 38.1406
Q17.4062 35.9531 16.5938 32.8281
Q15.7969 29.7031 15.7969 25.75
Q15.7969 21.6562 16.6719 18.4531
Q17.5469 15.25 19.1875 13.0781
Q20.8438 10.9062 23.1875 9.78125
Q25.5469 8.65625 28.5 8.65625
Q31.4531 8.65625 33.2656 9.375
Q35.0938 10.0938 36.3438 10.9688
Q37.5938 11.8438 38.5156 12.5625
Q39.4531 13.2969 40.5938 13.2969
Q42.0938 13.2969 42.8438 12.1562
L46.4062 7.65625
Q44.3438 5.25 41.9375 3.625
Q39.5469 2 36.9688 1.01562
Q34.4062 0.046875 31.6562 -0.34375
Q28.9062 -0.75 26.2031 -0.75
Q21.4531 -0.75 17.25 1.01562
Q13.0469 2.79688 9.92188 6.1875
Q6.79688 9.59375 4.96875 14.5156
Q3.15625 19.4531 3.15625 25.75
Q3.15625 31.4062 4.78125 36.2188
Q6.40625 41.0469 9.54688 44.5625
Q12.7031 48.0938 17.3438 50.0938
Q22 52.0938 28.0469 52.0938
Q33.7969 52.0938 38.125 50.25
Q42.4531 48.4062 45.9062 44.9531
z
" id="Lato-Bold-63"/>
      <path d="
M17.9062 51.2969
L17.9062 18.7031
Q17.9062 14 20.0781 11.4219
Q22.25 8.84375 26.5938 8.84375
Q29.7969 8.84375 32.5938 10.2656
Q35.4062 11.7031 37.9062 14.2031
L37.9062 51.2969
L50.25 51.2969
L50.25 0
L42.7031 0
Q40.2969 0 39.5469 2.25
L38.7031 6.34375
Q37.0938 4.75 35.3906 3.42188
Q33.7031 2.09375 31.7656 1.17188
Q29.8438 0.25 27.625 -0.265625
Q25.4062 -0.796875 22.8438 -0.796875
Q18.6562 -0.796875 15.4219 0.625
Q12.2031 2.04688 10 4.64062
Q7.79688 7.25 6.67188 10.8281
Q5.54688 14.4062 5.54688 18.7031
L5.54688 51.2969
z
" id="Lato-Bold-75"/>
      <path d="
M6.59375 0
L6.59375 51.2969
L14.1562 51.2969
Q16.5469 51.2969 17.2969 49.0469
L18.1562 45
Q19.7031 46.5938 21.4219 47.8906
Q23.1562 49.2031 25.0781 50.1406
Q27 51.0938 29.2031 51.5938
Q31.4062 52.0938 34 52.0938
Q38.2031 52.0938 41.4531 50.6719
Q44.7031 49.25 46.875 46.6719
Q49.0469 44.0938 50.1719 40.5156
Q51.2969 36.9531 51.2969 32.6562
L51.2969 0
L38.9531 0
L38.9531 32.6562
Q38.9531 37.3438 36.7656 39.9219
Q34.5938 42.5 30.25 42.5
Q27.0469 42.5 24.25 41.0469
Q21.4531 39.5938 18.9531 37.0938
L18.9531 0
z
" id="Lato-Bold-6e"/>
      <path d="
M23.4531 -0.796875
Q16.7969 -0.796875 13.1875 2.96875
Q9.59375 6.75 9.59375 13.4062
L9.59375 42.0469
L4.40625 42.0469
Q3.40625 42.0469 2.67188 42.6875
Q1.95312 43.3438 1.95312 44.6562
L1.95312 49.5469
L10.2031 50.9062
L12.7969 64.9062
Q13 65.9062 13.7188 66.4531
Q14.4531 67 15.5469 67
L21.9531 67
L21.9531 50.8438
L35.4531 50.8438
L35.4531 42.0469
L21.9531 42.0469
L21.9531 14.25
Q21.9531 11.8438 23.1406 10.5
Q24.3438 9.15625 26.3438 9.15625
Q27.5 9.15625 28.2656 9.42188
Q29.0469 9.70312 29.625 10
Q30.2031 10.2969 30.6406 10.5625
Q31.0938 10.8438 31.5469 10.8438
Q32.0938 10.8438 32.4375 10.5625
Q32.7969 10.2969 33.2031 9.75
L36.9062 3.75
Q34.2031 1.5 30.7031 0.34375
Q27.2031 -0.796875 23.4531 -0.796875" id="Lato-Bold-74"/>
      <path d="
M28.5 52.0938
Q34.25 52.0938 38.9219 50.25
Q43.5938 48.4062 46.8906 45
Q50.2031 41.5938 52 36.6875
Q53.7969 31.7969 53.7969 25.75
Q53.7969 19.6562 52 14.75
Q50.2031 9.84375 46.8906 6.39062
Q43.5938 2.95312 38.9219 1.09375
Q34.25 -0.75 28.5 -0.75
Q22.75 -0.75 18.0469 1.09375
Q13.3438 2.95312 10.0156 6.39062
Q6.70312 9.84375 4.875 14.75
Q3.04688 19.6562 3.04688 25.75
Q3.04688 31.7969 4.875 36.6875
Q6.70312 41.5938 10.0156 45
Q13.3438 48.4062 18.0469 50.25
Q22.75 52.0938 28.5 52.0938
M28.5 8.75
Q34.9062 8.75 37.9688 13.0469
Q41.0469 17.3438 41.0469 25.6562
Q41.0469 33.9531 37.9688 38.2969
Q34.9062 42.6562 28.5 42.6562
Q22 42.6562 18.8906 38.2812
Q15.7969 33.9062 15.7969 25.6562
Q15.7969 17.4062 18.8906 13.0781
Q22 8.75 28.5 8.75" id="Lato-Bold-6f"/>
     </defs>
     <g style="fill:#262626;" transform="translate(13.285625 230.75796875)rotate(-90.0)scale(0.26 -0.26)">
      <use xlink:href="#Lato-Bold-63"/>
      <use x="47.700012207" xlink:href="#Lato-Bold-6f"/>
      <use x="104.550018311" xlink:href="#Lato-Bold-75"/>
      <use x="161.400024414" xlink:href="#Lato-Bold-6e"/>
      <use x="218.250030518" xlink:href="#Lato-Bold-74"/>
     </g>
    </g>
   </g>
   <g id="line2d_14">
    <path clip-path="url(#p3d386a08f4)" d="
M72 356.4
L518.4 92.4" style="fill:none;stroke:#4c72b0;stroke-linecap:round;stroke-width:1.75;"/>
   </g>
   <g id="patch_3">
    <path d="
M72 366.4
L518.4 366.4" style="fill:none;stroke:#262626;stroke-linecap:square;stroke-linejoin:miter;stroke-width:1.25;"/>
   </g>
   <g id="patch_4">
    <path d="
M62 356.4
L62 39.6" style="fill:none;stroke:#262626;stroke-linecap:square;stroke-linejoin:miter;stroke-width:1.25;"/>
   </g>
   <g id="legend_1">
    <g id="line2d_15">
     <path d="
M458.202 52.5297
L478.202 52.5297" style="fill:none;stroke:#4c72b0;stroke-linecap:round;stroke-width:1.75;"/>
    </g>
    <g id="line2d_16"/>
    <g id="text_16">
     <!-- None -->
     <defs>
      <path d="
M14.3438 72.2969
Q15.25 72.2969 15.8438 72.2188
Q16.4531 72.1562 16.9219 71.9219
Q17.4062 71.7031 17.8438 71.2656
Q18.2969 70.8438 18.8438 70.1562
L56.7969 21.7969
Q56.5938 23.5469 56.5156 25.2188
Q56.4531 26.9062 56.4531 28.3438
L56.4531 72.2969
L68.2969 72.2969
L68.2969 0
L61.3438 0
Q59.75 0 58.7031 0.5
Q57.6562 1 56.6562 2.29688
L18.8438 50.4531
Q19 48.8438 19.0781 47.2656
Q19.1562 45.7031 19.1562 44.4062
L19.1562 0
L7.29688 0
L7.29688 72.2969
L14.3438 72.2969
z
" id="Lato-Bold-4e"/>
     </defs>
     <g style="fill:#262626;" transform="translate(486.2015625 56.0296875)scale(0.1 -0.1)">
      <use xlink:href="#Lato-Bold-4e"/>
      <use x="75.6000061035" xlink:href="#Lato-Bold-6f"/>
      <use x="132.450012207" xlink:href="#Lato-Bold-6e"/>
      <use x="189.300018311" xlink:href="#Lato-Bold-65"/>
     </g>
    </g>
   </g>
  </g>
 </g>
 <defs>
  <clipPath id="p3d386a08f4">
   <rect height="316.8" width="446.4" x="72.0" y="39.6"/>
  </clipPath>
 </defs>
</svg>
